<?xml version="1.0" encoding="utf-8"?>
<!-- Generator: Adobe Illustrator 16.0.0, SVG Export Plug-In . SVG Version: 6.00 Build 0)  -->
<!DOCTYPE svg PUBLIC "-//W3C//DTD SVG 1.1//EN" "http://www.w3.org/Graphics/SVG/1.1/DTD/svg11.dtd">
<svg version="1.1" id="Layer_1" xmlns="http://www.w3.org/2000/svg" xmlns:xlink="http://www.w3.org/1999/xlink" x="0px" y="0px"
	 width="70px" height="70px" viewBox="-10 -10 70 70" enable-background="new -10 -10 70 70" xml:space="preserve">
<g>
	<path fill="#FFFFFF" d="M8.859,14.889c1.522,0.595,3.376,0.044,4.405-1.195c1.094-1.317,1.243-3.187,0.369-4.656
		c-0.876-1.485-2.613-2.151-4.271-1.853c-1.818,0.337-3.101,2.04-3.169,3.833c-0.002,0.03-0.004,0.06-0.004,0.096
		C6.214,12.833,7.272,14.27,8.859,14.889z M8.416,9.444c0.426-0.46,1.025-0.73,1.6-0.771c0.647-0.044,1.271,0.161,1.722,0.537
		c0.493,0.408,0.817,0.998,0.882,1.537c0.095,0.723-0.068,1.271-0.483,1.859c-0.324,0.459-0.902,0.784-1.516,0.913
		c-1.22,0.261-2.463-0.605-2.789-1.819c-0.063-0.234-0.069-0.322-0.072-0.587C7.767,10.483,7.993,9.9,8.416,9.444z M13.445,26.901
		c-0.43,0-0.785,0.354-0.785,0.789v13.629h-1.676V30.366c0-0.434-0.348-0.783-0.785-0.783c-0.432,0-0.783,0.352-0.783,0.783v10.953
		H7.74V27.69c0-0.437-0.351-0.789-0.784-0.789s-0.784,0.354-0.784,0.789v14.412c0,0.437,0.351,0.782,0.784,0.782h6.489
		c0.434,0,0.787-0.349,0.787-0.782V27.69C14.232,27.255,13.879,26.901,13.445,26.901z M13.648,16.32H10.51H9.888H6.751
		C5.234,16.32,4,17.556,4,19.072v9.866c0,0.437,0.351,0.783,0.784,0.783c0.432,0,0.783-0.35,0.783-0.783v-9.866
		c0-0.652,0.532-1.187,1.184-1.187h3.137h0.622h3.138c0.653,0,1.183,0.534,1.183,1.187v9.866c0,0.437,0.353,0.783,0.786,0.783
		c0.431,0,0.785-0.35,0.785-0.783v-9.866C16.401,17.553,15.166,16.32,13.648,16.32z"/>
	<path fill="#FFFFFF" d="M23.655,14.889c1.527,0.595,3.38,0.044,4.41-1.195c1.09-1.317,1.238-3.187,0.371-4.656
		c-0.881-1.485-2.615-2.151-4.272-1.853c-1.818,0.336-3.103,2.039-3.171,3.832c-0.001,0.03-0.001,0.06-0.001,0.096
		C21.016,12.833,22.069,14.27,23.655,14.889z M23.214,9.444c0.426-0.46,1.025-0.73,1.604-0.771c0.646-0.044,1.265,0.161,1.718,0.537
		c0.491,0.408,0.815,0.998,0.888,1.537c0.088,0.723-0.072,1.271-0.486,1.859c-0.328,0.459-0.903,0.784-1.515,0.913
		c-1.223,0.261-2.461-0.605-2.79-1.819c-0.066-0.234-0.07-0.322-0.074-0.587C22.566,10.483,22.792,9.9,23.214,9.444z M28.246,26.901
		c-0.432,0-0.785,0.354-0.785,0.789v13.629h-1.676V30.366c0-0.434-0.353-0.783-0.785-0.783s-0.785,0.352-0.785,0.783v10.953h-1.674
		V27.69c0-0.437-0.353-0.789-0.787-0.789c-0.431,0-0.782,0.354-0.782,0.789v14.412c0,0.437,0.352,0.782,0.782,0.782h6.492
		c0.434,0,0.781-0.349,0.781-0.782V27.69C29.029,27.255,28.68,26.901,28.246,26.901z M28.451,16.32H25.31h-0.619H21.55
		c-1.515,0-2.749,1.235-2.749,2.751v9.865c0,0.438,0.349,0.783,0.783,0.783s0.783-0.349,0.783-0.783v-9.865
		c0-0.652,0.534-1.187,1.183-1.187h3.141h0.619h3.14c0.651,0,1.183,0.534,1.183,1.187v9.865c0,0.438,0.348,0.783,0.783,0.783
		c0.434,0,0.783-0.349,0.783-0.783v-9.865C31.2,17.553,29.966,16.32,28.451,16.32z"/>
	<path fill="#FFFFFF" d="M38.456,14.889c1.524,0.595,3.383,0.044,4.411-1.195c1.088-1.317,1.238-3.187,0.369-4.656
		c-0.881-1.485-2.614-2.151-4.274-1.853c-1.815,0.336-3.103,2.039-3.168,3.832c-0.004,0.03-0.004,0.06-0.004,0.096
		C35.816,12.833,36.871,14.27,38.456,14.889z M38.012,9.444c0.432-0.46,1.025-0.73,1.604-0.771c0.649-0.044,1.271,0.161,1.723,0.537
		c0.492,0.408,0.813,0.998,0.884,1.537c0.09,0.723-0.07,1.271-0.484,1.859c-0.323,0.459-0.906,0.784-1.518,0.913
		c-1.221,0.261-2.462-0.605-2.789-1.819c-0.06-0.234-0.068-0.322-0.072-0.587C37.371,10.483,37.596,9.9,38.012,9.444z
		 M43.045,26.901c-0.436,0-0.781,0.354-0.781,0.789v13.629h-1.68V30.366c0-0.434-0.354-0.783-0.781-0.783
		c-0.439,0-0.783,0.352-0.783,0.783v10.953h-1.679V27.69c0-0.437-0.354-0.789-0.782-0.789c-0.437,0-0.787,0.354-0.787,0.789v14.412
		c0,0.437,0.352,0.782,0.787,0.782h6.487c0.437,0,0.783-0.349,0.783-0.782V27.69C43.829,27.255,43.48,26.901,43.045,26.901z
		 M43.251,16.32h-3.142h-0.621h-3.137c-1.517,0-2.75,1.235-2.75,2.751v9.865c0,0.438,0.35,0.783,0.782,0.783
		c0.431,0,0.785-0.349,0.785-0.783v-9.865c0-0.652,0.53-1.187,1.183-1.187h3.137h0.621h3.142c0.651,0,1.183,0.534,1.183,1.187v9.865
		c0,0.438,0.351,0.783,0.781,0.783c0.434,0,0.785-0.349,0.785-0.783v-9.865C46,17.553,44.768,16.32,43.251,16.32z"/>
</g>
</svg>
