<?xml version="1.0" encoding="utf-8"?>
<!-- Generator: Adobe Illustrator 16.0.0, SVG Export Plug-In . SVG Version: 6.00 Build 0)  -->
<!DOCTYPE svg PUBLIC "-//W3C//DTD SVG 1.1//EN" "http://www.w3.org/Graphics/SVG/1.1/DTD/svg11.dtd">
<svg version="1.1" id="Layer_1" xmlns="http://www.w3.org/2000/svg" xmlns:xlink="http://www.w3.org/1999/xlink" x="0px" y="0px"
	 width="70px" height="70px" viewBox="-10 -10 70 70" enable-background="new -10 -10 70 70" xml:space="preserve">
<path fill="#FFFFFF" d="M17.964,18.988c-0.986,0.922-0.937,2.45-0.148,3.457c0.04,0.06,0.088,0.119,0.148,0.175
	c0.057,0.059,0.111,0.104,0.169,0.147c1.038,0.826,2.473,0.776,3.463-0.147c1.045-0.978,0.929-2.639,0-3.632
	C20.619,17.941,18.958,18.06,17.964,18.988z M20.284,21.307c-0.29,0.314-0.711,0.278-1.008,0c-0.292-0.311-0.292-0.697,0-1.005
	c0.29-0.312,0.712-0.278,1.008,0C20.595,20.588,20.56,21.012,20.284,21.307z M28.402,18.988c-0.985,0.922-0.938,2.45-0.149,3.457
	c0.042,0.06,0.088,0.119,0.149,0.175c0.057,0.059,0.111,0.104,0.17,0.147c1.037,0.826,2.475,0.776,3.465-0.147
	c1.043-0.978,0.927-2.639,0-3.632C31.059,17.941,29.396,18.06,28.402,18.988z M30.725,21.307c-0.291,0.314-0.715,0.278-1.011,0
	c-0.291-0.311-0.291-0.697,0-1.005c0.29-0.312,0.712-0.278,1.011,0C31.033,20.588,30.997,21.012,30.725,21.307z M39.998,42.533
	c0.003-0.052-0.002-0.103-0.01-0.151c-0.17-2.914-0.342-5.83-0.512-8.745L38.643,19.44c-0.062-1.073-0.125-2.149-0.188-3.226
	c-0.07-1.195-0.903-2.138-2.147-2.138h-2.527c-0.297-3.355-2.227-6.571-5.372-7.977c-3.396-1.521-7.339-0.562-9.779,2.212
	c-1.415,1.606-2.227,3.649-2.412,5.766h-2.579c-0.984,0-1.92,0.746-2.054,1.734c-0.129,0.947-0.13,1.92-0.185,2.871
	c-0.123,2.078-0.244,4.157-0.366,6.234c-0.278,4.746-0.556,9.489-0.834,14.235c-0.065,1.105-0.13,2.209-0.195,3.313
	c-0.068,1.188,0.97,2.156,2.121,2.156h25.769c1.102,0,1.939-0.822,2.086-1.867C39.994,42.687,40.004,42.61,39.998,42.533z
	 M19.52,10.156c0.852-1.234,2.2-2.23,3.627-2.671c0.834-0.258,1.476-0.316,2.367-0.258c0.336,0.021,0.633,0.074,1.051,0.177
	c0.396,0.099,0.818,0.254,1.086,0.378c1.494,0.696,2.584,1.816,3.363,3.253c0.504,0.926,0.799,1.976,0.902,3.042h-1.01
	c-0.362-3.021-2.711-5.65-5.909-5.686c-3.197-0.036-5.541,2.697-5.908,5.686h-1.012C18.22,12.674,18.693,11.36,19.52,10.156z
	 M29.037,14.077h-8.08c0.143-0.928,0.533-1.807,1.14-2.485c0.777-0.868,1.8-1.331,2.9-1.343c1.104-0.015,2.114,0.496,2.897,1.342
	C28.514,12.251,28.896,13.15,29.037,14.077z M38.127,42.642c-0.009,0.01-0.023,0.024-0.057,0.057
	c-0.021,0.027-0.037,0.044-0.045,0.056c0-0.008-0.017-0.014-0.09,0.026c0.105-0.057-0.104-0.019-0.058-0.016
	c-0.005,0-0.017,0-0.021,0H12.087c0.056,0-0.109-0.029-0.097-0.007c-0.026-0.028-0.126-0.153-0.12-0.137
	c-0.041-0.07-0.044-0.082-0.008-0.027c-0.03-0.11-0.032-0.132-0.007-0.061c-0.003-0.06,0.006-0.124,0.009-0.181l0.079-1.345
	c0.255-4.358,0.513-8.722,0.767-13.08c0.223-3.785,0.446-7.566,0.666-11.348c0.008-0.124,0.015-0.245,0.021-0.364l0.004-0.051
	c-0.005,0.064,0.031-0.108,0.007-0.096c0.029-0.025,0.152-0.125,0.135-0.119c0.074-0.041,0.083-0.043,0.028-0.007
	c0.113-0.03,0.133-0.033,0.062-0.008c0.27-0.013,0.541,0,0.809,0h21.917c0.015,0,0-0.008-0.021-0.013
	c0.021,0.003,0.051,0.013,0.09,0.019c-0.13-0.029,0.133,0.07,0.029-0.007c0.137,0.106,0.104,0.101,0.154,0.2
	c-0.023-0.046-0.016,0.025-0.016,0.055c0.004,0.041,0.006,0.08,0.008,0.117c0.013,0.163,0.021,0.322,0.027,0.484
	c0.037,0.615,0.074,1.231,0.107,1.846l0.814,13.811c0.193,3.336,0.387,6.675,0.586,10.012c0,0.014,0.004,0.025,0.004,0.038
	c-0.009,0.015-0.021,0.135,0.004,0.088l0.002,0.005C38.137,42.619,38.129,42.636,38.127,42.642z"/>
</svg>
