<?xml version="1.0" encoding="utf-8"?>
<!-- Generator: Adobe Illustrator 16.0.0, SVG Export Plug-In . SVG Version: 6.00 Build 0)  -->
<!DOCTYPE svg PUBLIC "-//W3C//DTD SVG 1.1//EN" "http://www.w3.org/Graphics/SVG/1.1/DTD/svg11.dtd">
<svg version="1.1" id="Layer_1" xmlns="http://www.w3.org/2000/svg" xmlns:xlink="http://www.w3.org/1999/xlink" x="0px" y="0px"
	 width="70px" height="70px" viewBox="-10 -10 70 70" enable-background="new -10 -10 70 70" xml:space="preserve">
<path fill="#FFFFFF" d="M42.709,13.52l-7.901-3.994c-0.114-0.099-0.247-0.166-0.392-0.197l-7.611-3.846
	c-0.559-0.28-1.182-0.431-1.803-0.431c-0.624,0-1.248,0.15-1.806,0.431L7.292,13.52C5.899,14.223,5,15.709,5,17.305V32.45
	c0,0.399,0.056,0.793,0.163,1.168c-0.127,0.69-0.181,1.403-0.153,2.118c0.137,3.423,2.17,6.584,5.208,8.154
	c2.98,1.541,6.645,1.385,9.495-0.379c0.29-0.176,0.567-0.371,0.833-0.578l2.65,1.338c0.559,0.285,1.182,0.435,1.806,0.435
	c0.622,0,1.245-0.147,1.803-0.435l15.904-8.037C44.1,35.534,45,34.047,45,32.45V17.305C45,15.708,44.1,14.223,42.709,13.52z
	 M17.823,42.548c-2.762,1.279-6.239,0.664-8.493-1.379c-2.348-2.131-3.151-5.437-2.148-8.433c0.949-2.844,3.691-4.973,6.645-5.26
	c2.267-0.22,4.474,0.525,6.11,2.013c1.664,1.51,2.573,3.624,2.585,5.84c-0.008,1.569-0.441,3.019-1.312,4.356
	C20.405,40.927,19.226,41.898,17.823,42.548z M43.254,32.45c0,0.944-0.521,1.819-1.334,2.229l-15.9,8.034
	c-0.316,0.158-0.669,0.244-1.017,0.244c-0.352,0-0.703-0.086-1.019-0.244l-2.095-1.057c1.501-1.736,2.364-3.996,2.379-6.328
	c-0.02-3.451-1.887-6.664-4.882-8.384c-3.023-1.734-6.876-1.629-9.832,0.195c-1.122,0.695-2.07,1.613-2.807,2.676V17.305
	c0-0.945,0.521-1.82,1.333-2.228l15.903-8.038c0.315-0.158,0.667-0.242,1.019-0.242c0.348,0,0.7,0.084,1.017,0.242l6.245,3.156
	l-14.331,7.24c-1.392,0.703-2.29,2.188-2.29,3.787v2.312c0,0.482,0.391,0.873,0.872,0.873c0.482,0,0.874-0.391,0.874-0.873v-2.312
	c0-0.945,0.523-1.818,1.332-2.229l15.478-7.82l7.722,3.902c0.812,0.406,1.334,1.281,1.334,2.227V32.45z M37.164,26.038
	c0.082-0.14,0.159-0.277,0.237-0.416v4.438c0,1.125,1.745,1.125,1.745,0v-5.819c0.105,0.09,0.208,0.18,0.312,0.27
	c0.357,0.312,0.879,0.354,1.233,0c0.317-0.317,0.358-0.922,0-1.233c-0.603-0.521-1.203-1.043-1.801-1.565l-0.004-0.001
	c-0.048-0.046-0.103-0.082-0.159-0.113c-0.359-0.205-0.816-0.175-1.1,0.142c-0.065,0.067-0.125,0.147-0.164,0.241
	c-0.602,1.06-1.205,2.117-1.809,3.177C35.1,26.136,36.607,27.016,37.164,26.038z M29.698,29.833c0.078-0.14,0.156-0.276,0.234-0.414
	v4.438c0,1.127,1.745,1.127,1.745,0v-5.82c0.105,0.092,0.208,0.182,0.312,0.271c0.359,0.312,0.88,0.354,1.234,0
	c0.319-0.318,0.358-0.923,0-1.234c-0.603-0.521-1.198-1.043-1.8-1.566H31.42c-0.049-0.046-0.104-0.085-0.16-0.115
	c-0.359-0.203-0.817-0.172-1.1,0.144c-0.064,0.065-0.119,0.146-0.16,0.239c-0.604,1.06-1.209,2.119-1.812,3.179
	C27.631,29.932,29.139,30.812,29.698,29.833z M40.722,31.514l-12.423,6.278c-0.43,0.215-0.604,0.742-0.387,1.172
	c0.152,0.306,0.461,0.479,0.78,0.479c0.134,0,0.267-0.03,0.392-0.094l12.427-6.279c0.43-0.217,0.602-0.742,0.386-1.174
	C41.678,31.468,41.154,31.294,40.722,31.514z M18.847,32.355c-1.883,1.875-3.766,3.75-5.649,5.627
	c-0.848-0.838-1.695-1.674-2.543-2.508c-0.801-0.791-2.038,0.441-1.234,1.232c1.055,1.041,2.109,2.08,3.161,3.12
	c0.34,0.335,0.897,0.339,1.234,0c2.089-2.079,4.177-4.157,6.266-6.237C20.88,32.796,19.644,31.562,18.847,32.355z"/>
</svg>
