<?xml version="1.0" encoding="utf-8"?>
<!-- Generator: Adobe Illustrator 16.0.0, SVG Export Plug-In . SVG Version: 6.00 Build 0)  -->
<!DOCTYPE svg PUBLIC "-//W3C//DTD SVG 1.1//EN" "http://www.w3.org/Graphics/SVG/1.1/DTD/svg11.dtd">
<svg version="1.1" id="Layer_1" xmlns="http://www.w3.org/2000/svg" xmlns:xlink="http://www.w3.org/1999/xlink" x="0px" y="0px"
	 width="70px" height="70px" viewBox="-10 -10 70 70" enable-background="new -10 -10 70 70" xml:space="preserve">
<path fill="#FFFFFF" d="M26.732,35.051c-0.328-0.328-0.766-0.509-1.229-0.509s-0.901,0.181-1.227,0.509l-1.661,1.665
	c-0.104,0.101-0.271,0.127-0.401,0.058c-1.074-0.567-3.121-1.763-4.742-3.381c-1.606-1.61-2.722-3.562-3.243-4.584
	c-0.067-0.133-0.042-0.291,0.062-0.397l1.672-1.666c0.676-0.683,0.676-1.785,0-2.462l-4.433-4.432
	c-0.327-0.329-0.764-0.509-1.228-0.509c-0.464,0-0.901,0.18-1.23,0.509l-3.723,3.723C4.5,24.425,4.261,25.73,4.753,26.825
	c0.916,2.041,3.212,6.209,8.299,11.296c5.994,5.992,10.053,7.904,11.155,8.348c0.32,0.129,0.66,0.193,1.005,0.193l0,0
	c0.714,0,1.413-0.29,1.915-0.799l3.955-4.004c0.311-0.311,0.508-0.698,0.541-1.098c0.053-0.478-0.111-0.933-0.461-1.279
	L26.732,35.051z M25.85,44.604c-0.168,0.168-0.394,0.263-0.636,0.263c-0.115,0-0.226-0.021-0.332-0.062
	c-1.021-0.416-4.805-2.201-10.556-7.955c-4.885-4.885-7.064-8.841-7.93-10.763c-0.188-0.418-0.097-0.916,0.228-1.241l3.681-3.684
	l4.346,4.347l-1.629,1.63c-0.659,0.658-0.817,1.657-0.393,2.488c0.567,1.112,1.79,3.251,3.571,5.032
	c1.79,1.789,4.013,3.086,5.175,3.7c0.308,0.162,0.652,0.248,0.999,0.248c0.573,0,1.108-0.221,1.514-0.625l1.617-1.616l4.267,4.265
	L25.85,44.604z M41.332,8.341c-2.607-1.938-6.059-3.003-9.721-3.003c-3.661,0-7.112,1.064-9.721,3.003
	c-2.688,1.996-4.169,4.674-4.169,7.543c0,2.104,0.809,4.132,2.334,5.865c1.322,1.501,3.12,2.714,5.229,3.531
	c-0.093,0.742-0.553,1.424-1.363,2.031c-0.261,0.193-1.052,0.787-0.779,1.606c0.121,0.362,0.467,0.796,1.428,0.796l0,0
	c0.979,0,2.655-0.4,4.269-1.021c1.261-0.482,2.896-1.258,3.89-2.295C39.923,25.965,45.5,21.402,45.5,15.884
	C45.499,13.015,44.02,10.337,41.332,8.341z M40.466,21.824c-2.149,1.681-5.063,2.674-8.194,2.796
	c-0.271,0.007-0.52,0.137-0.681,0.346c-0.881,1.144-3.556,2.228-5.462,2.702c0.95-1.204,1.025-2.403,0.954-3.104
	c-0.034-0.351-0.271-0.648-0.604-0.763c-4.227-1.443-6.958-4.552-6.958-7.917c0-4.824,5.424-8.748,12.09-8.748
	c6.668,0,12.089,3.924,12.089,8.748C43.7,18.089,42.551,20.199,40.466,21.824z M33.395,19.731h-0.569l-0.313-0.497v-4.33
	c0-0.497-0.398-0.9-0.9-0.9h-1.836c-0.496,0-0.898,0.403-0.898,0.9c0,0.498,0.402,0.899,0.898,0.899h0.567l0.371,0.585v3.343h-0.938
	c-0.496,0-0.898,0.402-0.898,0.899c0,0.498,0.402,0.9,0.898,0.9h3.621c0.494,0,0.896-0.402,0.896-0.9
	C34.292,20.134,33.889,19.731,33.395,19.731z M31.535,13.06c0.809,0,1.471-0.659,1.471-1.471s-0.662-1.471-1.471-1.471
	s-1.467,0.656-1.467,1.471C30.068,12.4,30.727,13.06,31.535,13.06z M31.535,11.262c0.182,0,0.328,0.146,0.328,0.327
	c0,0.181-0.146,0.329-0.328,0.329c-0.18,0-0.328-0.147-0.328-0.329C31.207,11.407,31.355,11.262,31.535,11.262z"/>
</svg>
